<svg viewBox="0 0 548.4 492.64" xmlns="http://www.w3.org/2000/svg" xmlns:xlink="http://www.w3.org/1999/xlink"><linearGradient id="a" gradientUnits="userSpaceOnUse" x1="392.53" x2="394.32" y1="334.16" y2="169.39"><stop offset="0" stop-color="#010101" stop-opacity="0"/><stop offset=".95" stop-color="#010101"/></linearGradient><linearGradient id="b" gradientUnits="userSpaceOnUse" x1="-211.48" x2="472.35" y1="-8.75" y2="343.85"><stop offset="0" stop-color="#fff" stop-opacity="0"/><stop offset=".07" stop-color="#fff" stop-opacity=".22"/><stop offset=".16" stop-color="#fff" stop-opacity=".45"/><stop offset=".25" stop-color="#fff" stop-opacity=".65"/><stop offset=".33" stop-color="#fff" stop-opacity=".8"/><stop offset=".4" stop-color="#fff" stop-opacity=".91"/><stop offset=".46" stop-color="#fff" stop-opacity=".98"/><stop offset=".51" stop-color="#fff"/></linearGradient><linearGradient id="c" x1="179.76" x2="265.95" xlink:href="#a" y1="425.15" y2="212.89"/><linearGradient id="d" x1="163.16" x2="393.96" xlink:href="#a" y1="415.37" y2="113.35"/><linearGradient id="e" x1="231.88" x2="142.66" xlink:href="#a" y1="221.07" y2="268.08"/><linearGradient id="f" x1="199.57" x2="40.36" xlink:href="#a" y1="233.58" y2="210.07"/><linearGradient id="g" gradientTransform="matrix(.88319329 -.46900919 .46900919 .88319329 -86.94 171.4)" gradientUnits="userSpaceOnUse" x1="244.1" x2="263.72" y1="131.12" y2="131.12"><stop offset="0" stop-color="#e4c5d5"/><stop offset=".42" stop-color="#e9d3cf"/><stop offset="1" stop-color="#efe8ca"/></linearGradient><linearGradient id="h" x1="187.73" x2="281.75" xlink:href="#a" y1="186" y2="53.5"/><linearGradient id="i" x1="200.34" x2="247.66" xlink:href="#g" y1="257.67" y2="257.67"/><linearGradient id="j" x1="260.51" x2="312.88" xlink:href="#g" y1="257.01" y2="257.01"/><linearGradient id="k" x1="263.04" x2="274.44" xlink:href="#a" y1="244.89" y2="290.83"/><linearGradient id="l" x1="312.32" x2="360.05" xlink:href="#a" y1="165.42" y2="445.39"/><linearGradient id="m" x1="314.77" x2="362.11" xlink:href="#a" y1="165.66" y2="443.38"/><linearGradient id="n" x1="292.9" x2="390.19" xlink:href="#a" y1="220.45" y2="265.92"/><linearGradient id="o" x1="265.11" x2="170.02" xlink:href="#a" y1="306.88" y2="435.1"/><linearGradient id="p" x1="292.54" x2="167" xlink:href="#a" y1="373.72" y2="319.76"/><linearGradient id="q" x1="293.31" x2="294.51" xlink:href="#a" y1="255.42" y2="286.1"/><linearGradient id="r" x1="266.37" x2="267.97" xlink:href="#a" y1="257.3" y2="291.49"/><linearGradient id="s" x1="185.98" x2="243.33" xlink:href="#g" y1="145.32" y2="145.32"/><linearGradient id="t" x1="168.3" x2="226.71" xlink:href="#a" y1="150.15" y2="170.09"/><linearGradient id="u" gradientTransform="matrix(.77890032 .62714774 -.62714774 .77890032 222.96 -162.91)" x1="235.34" x2="312.28" xlink:href="#a" y1="153.05" y2="94.91"/><linearGradient id="v" gradientTransform="matrix(.77890032 .62714774 -.62714774 .77890032 222.96 -162.99)" x1="250.45" x2="360.79" xlink:href="#a" y1="140.58" y2="59.93"/><linearGradient id="w" gradientTransform="matrix(.77890032 .62714774 -.62714774 .77890032 222.96 -163.08)" x1="268.41" x2="430.94" xlink:href="#a" y1="129.1" y2="-30.21"/><linearGradient id="x" gradientTransform="matrix(.77890032 .62714774 -.62714774 .77890032 222.96 -163.16)" gradientUnits="userSpaceOnUse" x1="289.62" x2="532.55" y1="110.91" y2="-112.23"><stop offset="0" stop-color="#010101" stop-opacity="0"/><stop offset=".36" stop-color="#010101" stop-opacity=".36"/><stop offset=".95" stop-color="#010101"/></linearGradient><linearGradient id="y" gradientTransform="matrix(.78152047 .6238796 -.6238796 .78152047 215.04 -164.51)" x1="313.43" x2="431.59" xlink:href="#b" y1="91.43" y2="-5.3"/><linearGradient id="z" gradientTransform="matrix(.77890032 .62714774 -.62714774 .77890032 222.96 -163.41)" x1="316.79" x2="392.99" xlink:href="#b" y1="90.28" y2="24.48"/><linearGradient id="A" x1="155.28" x2="434.16" xlink:href="#a" y1="401.47" y2="217.69"/><linearGradient id="B" x1="212.19" x2="221.62" xlink:href="#a" y1="237.46" y2="237.46"/><path d="m555.18 195.07c-.75 22.8-9.63 44.51-19.88 64.85-17.3 34.38-39.2 67.36-49.3 104.86-4.44 16.35-2.2 33.62-3.72 49.59-1.29 13.51-5.23 26.11-18.1 36.51-13.62 11-32.48 12.3-50 12.37-38 .23-77.45-2.58-112.52 12-10.39 4.37-20.18 10.14-30.85 13.82-20.72 7.17-43.34 5.84-65.23 4.47-21.33-1.36-43-2.8-63.19-9.67s-39.24-20-48.53-39.28c-4.56-9.45-6.61-19.88-9.57-30a87.27 87.27 0 0 0 -5-13.32c-13.58-28-46.67-42-61.89-69.1-10.54-18.74-11.15-41.36-10.28-62.87.91-22.66 3.38-45.81 13.25-66.23 10.21-21.13 27.7-37.87 46.22-52.33 33.74-26.37 71.76-46.56 107.43-70.16 27.06-17.92 52.83-37.84 81.33-53.36s60.34-26.68 92.71-25c47.13 2.35 88.65 30.89 125.15 60.76 20.84 17 41.22 35.06 56.78 57s26.14 48.22 25.19 75.09z" fill="#4e99ff" opacity=".24" transform="translate(-6.84 -2.01)"/><path d="m482.28 414.37c-1.29 13.51-5.23 26.11-18.1 36.51-13.62 11-32.48 12.3-50 12.37-38 .23-77.45-2.58-112.52 12-10.39 4.37-20.18 10.14-30.85 13.82-20.72 7.17-43.34 5.84-65.23 4.47-21.33-1.36-43-2.8-63.19-9.67s-39.24-20-48.53-39.28c-4.56-9.45-6.61-19.88-9.57-30 56.74-14.31 118.93 8.69 175.52-7.36 13.28-3.8 25.92-9.64 39.35-12.9 34.91-8.54 63.91 4.66 97.83 8.5 28.27 3.15 53.36-.84 81.33 9.79 1.31.54 2.68 1.11 3.96 1.75z" fill="#4e99ff" opacity=".24" transform="translate(-6.84 -2.01)"/><path d="m382.53 270.23h18.96v158.31h-18.96z" fill="#4e99ff"/><path d="m382.88 270.23h18.96v158.31h-18.96z" fill="url(#a)"/><path d="m10.78 24.71h191.49v261h-191.49z" fill="#4e99ff"/><path d="m10.78 24.71h191.49v261h-191.49z" fill="url(#b)"/><circle cx="133.15" cy="145.04" fill="#4e99ff" opacity=".3" r="50.32"/><path d="m168.13 302.46h32.19a46.59 46.59 0 0 1 46.59 46.54v101.62a0 0 0 0 1 0 0h-125.37a0 0 0 0 1 0 0v-101.62a46.59 46.59 0 0 1 46.59-46.54z" fill="#4e99ff"/><g transform="translate(-6.84 -2.01)"><path d="m253.75 351.08v101.55h-125.38v-101.55a43.71 43.71 0 0 1 1.18-10.29 46.53 46.53 0 0 1 45.45-36.32h32.18a46.59 46.59 0 0 1 46.57 46.61z" fill="url(#c)"/><path d="m253.75 351.08v33.16c-.26.34-.53.69-.79 1q-6.6-17.76-13.21-35.6c-6.6 12.38-8.08 26.91-7.13 40.88s4.13 27.7 6.41 41.51c.53 3.19 1 6.57-.26 9.56-2.59 6.15-11.54 7.37-17.12 3.72s-8.27-10.36-9.68-16.88c-4-18.71.19-38.14-1-57.23-.46-6.68-1.67-13.62-5.73-19-5.81-7.62-15.94-10.2-25.31-12.33-13.29-3-27.93-5.81-39.85.72-1.9 1-3.83 2.32-6 2.35a5.8 5.8 0 0 1 -4.51-2.16 46.53 46.53 0 0 1 45.43-36.31h32.18a46.59 46.59 0 0 1 46.57 46.61z" fill="url(#d)"/><path d="m177.82 172.05c-1.77 5.31-1.19 11.08-.58 16.65.11 1 .5 2.35 1.54 2.41a2.15 2.15 0 0 0 1.15-.39 16 16 0 0 0 3.95-3.37 6.68 6.68 0 0 1 2.15-2c2.07-.93 4.24.88 6.29 1.87a9.19 9.19 0 0 0 5.54.76c.49-.09 1.07-.3 1.18-.79a1.24 1.24 0 0 0 -.11-.73c-1.06-2.78-3.76-4.56-5.51-7a16.37 16.37 0 0 1 -2.71-8.11c-.23-2.24.76-6.24-1.18-7.86-4.53-3.8-10.59 5.2-11.71 8.56z" fill="none" stroke="#4e99ff" stroke-miterlimit="10" stroke-width=".95"/><path d="m206.3 170.55c1.5 1.46 13.19 11.78 14.14 13.65a61.48 61.48 0 0 1 4.42 10.29 67.5 67.5 0 0 1 2.1 12.17l1.91 17.22a11.29 11.29 0 0 0 1.37 5 11 11 0 0 0 4.25 3.3 223.47 223.47 0 0 0 29.28 13.06 41.83 41.83 0 0 1 -.59 10.3 1.28 1.28 0 0 1 -.44.9 1.31 1.31 0 0 1 -.92.07c-15.8-2.83-30.68-9.67-46.51-12.29a5.46 5.46 0 0 1 -2.57-.86 5.33 5.33 0 0 1 -1.44-2.28c-1.27-3.07-2.55-6.15-3.56-9.32-1.46-4.57-2.37-9.3-3.75-13.89-.82-2.75-1.82-5.47-2.37-8.29-.84-4.32-.62-8.76-.39-13.15a37.23 37.23 0 0 1 1.07-8.3c1.62-5.63-2.22-23.63 4-17.58z" fill="#4e99ff"/><path d="m215.91 185.51c1.5 1.46 3.58-3.18 4.53-1.31a61.48 61.48 0 0 1 4.42 10.29 67.5 67.5 0 0 1 2.1 12.17l1.91 17.22a11.29 11.29 0 0 0 1.37 5 11 11 0 0 0 4.25 3.3 223.47 223.47 0 0 0 29.28 13.06 41.83 41.83 0 0 1 -.59 10.3 1.28 1.28 0 0 1 -.44.9 1.31 1.31 0 0 1 -.92.07c-15.8-2.83-30.68-9.67-46.51-12.29a5.46 5.46 0 0 1 -2.57-.86 5.33 5.33 0 0 1 -1.44-2.28c-1.27-3.07-2.55-6.15-3.56-9.32-1.46-4.57-2.37-9.3-3.75-13.89-.82-2.75-1.82-5.47-2.37-8.29-.84-4.32-.62-8.76-.39-13.15a37.23 37.23 0 0 1 1.07-8.3c1.62-5.63 7.4-8.67 13.61-2.62z" fill="url(#e)"/><path d="m221.68 197.88.86 24.91c.22 6.61 0 14.21-5.19 18.42-3.4 2.74-8.37 3.44-11.08 6.84-1.76 2.2-2.21 5.15-2.13 7.95.16 5.62 2.19 11 4.3 16.25a8.77 8.77 0 0 1 .95 4.28c-.32 2.78-3.09 4.57-5.66 5.78a63.07 63.07 0 0 1 -38.93 4.53 64.92 64.92 0 0 1 -18.68-6.84 3.36 3.36 0 0 1 -1.56-1.36 3.3 3.3 0 0 1 .1-2.33c2.66-8.71 7.49-16.73 9.4-25.63 1.85-8.64.84-17.59 1.23-26.4a83.18 83.18 0 0 1 5.37-25.92c1.89-5 4.34-9.87 8.18-13.6 6.56-6.39 16.22-8.53 25.42-9.45a23.14 23.14 0 0 1 7.29.12c3.17.7 5.77 2.57 8.61 4 2.29 1.16 5.52 1.47 7.6 2.73 4.56 2.77 3.76 11 3.92 15.72z" fill="#4e99ff"/><path d="m221.68 197.88.86 24.91c.22 6.61 0 14.21-5.19 18.42-3.4 2.74-8.37 3.44-11.08 6.84-1.76 2.2-2.21 5.15-2.13 7.95.16 5.62 2.19 11 4.3 16.25a8.77 8.77 0 0 1 .95 4.28c-.32 2.78-3.09 4.57-5.66 5.78a63.07 63.07 0 0 1 -38.93 4.53 64.92 64.92 0 0 1 -18.68-6.84 3.36 3.36 0 0 1 -1.56-1.36 3.3 3.3 0 0 1 .1-2.33c2.66-8.71 7.49-16.73 9.4-25.63 1.85-8.64.84-17.59 1.23-26.4a83.18 83.18 0 0 1 5.37-25.92c1.89-5 4.34-9.87 8.18-13.6 6.56-6.39 16.22-8.53 25.42-9.45a23.14 23.14 0 0 1 7.29.12c3.17.7 5.77 2.57 8.61 4 2.29 1.16 5.52 1.47 7.6 2.73 4.56 2.77 3.76 11 3.92 15.72z" fill="url(#f)"/><path d="m192 152.87a78.07 78.07 0 0 0 -1.77 12.07c-.26 3.78-.2 7.78 1.68 11.07a16 16 0 0 0 4.19 4.56 13.09 13.09 0 0 0 6.49 3.05 6.34 6.34 0 0 0 6.24-2.83c1.05-1.91.73-4.24.37-6.38l-1.06-6.49a19.84 19.84 0 0 0 -2.14-7.12c-2.37-3.94-7.07-5.73-11.46-7.08" fill="url(#g)"/><path d="m204.05 179.44a6.27 6.27 0 0 0 2.38 1.51 2.41 2.41 0 0 0 2.58-.7 3.67 3.67 0 0 0 .51-2c.11-2.31.2-4.62.25-6.94a19.63 19.63 0 0 0 -.42-5.52c-.75-2.85-2.66-5.24-4.62-7.44s-5.54-6.33-8.91-6.2c-3.7.14-2.51 5.55-2.14 7.92a33.13 33.13 0 0 0 10.37 19.37z" fill="url(#h)"/><path d="m161.94 183.58c-1.77 3.7-2.7 7.74-3.84 11.69-1.24 4.27-2.73 8.46-3.69 12.8a107.08 107.08 0 0 0 -1.88 16.29c-.36 5.65-.72 11.3-.72 17 0 4.23.38 8.89 3.39 11.87 2.33 2.3 5.74 3.06 9 3.66a265.65 265.65 0 0 0 35.21 4.11 3.28 3.28 0 0 0 2.43-.53 3.12 3.12 0 0 0 .79-1.83 35.59 35.59 0 0 0 .52-8.62l-29.25-9.13c-.46-15.39 6.63-30 8.71-45.2a85.27 85.27 0 0 1 1.42-9.44c.79-3.11 2.14-6.06 2.9-9.17.6-2.51 1.35-7.78-1.83-8.93-2.44-.88-6.59 1-8.8 1.89a28.32 28.32 0 0 0 -14.36 13.54z" fill="#4e99ff"/><path d="m220.44 251.22c4.41-.47 8.83-1.21 13.26-.92s9 1.74 12 5a6.81 6.81 0 0 1 1.91 3.56 3.61 3.61 0 0 1 -1.49 3.58c-1.38.83-3.13.35-4.74.34-3.78 0-7.45 2.66-11.08 1.65-2.26-.64-4.09-2.63-6.43-2.71-2.79-.1-4.91 2.54-7.62 3.22-2.21.56-4.54-.25-6.5-1.41-1.47-.87-2.8-1.95-4.25-2.85-1.25-.79-3.08-1.26-4.17-2.24-1.75-1.56-1-3.14.69-4.5 4.63-3.74 12.88-2.12 18.42-2.72z" fill="url(#i)"/><path d="m287.53 248.49a104.75 104.75 0 0 1 11.07.47 23.52 23.52 0 0 1 8.57 2.34 11.32 11.32 0 0 1 5.71 6.56c-4.31 2.37-10.28-.18-14.3 2.65a31.5 31.5 0 0 0 -2.37 2.12c-3.27 2.84-7.93 3.38-12.26 3.37a26.41 26.41 0 0 1 -10.42-1.68c-3.07-1.32-16.85-11.87-12-15.26 2.62-1.83 8.34-.69 11.29-.67z" fill="url(#j)"/></g><path d="m244.06 259.18 1.12-3.96 42.56-1.6.66 5.21z" fill="#4e99ff"/><path d="m244.06 259.18 1.12-3.96 42.56-1.6.66 5.21z" fill="url(#k)"/><path d="m368.85 236.92h-119.09l15.95-84.92h119.09z" fill="#4e99ff"/><path d="m384.78 151.99-15.94 84.93h-119.08l15.93-84.93z" fill="url(#l)"/><path d="m384.78 151.99-15.94 84.93h-114.26l15.93-84.93z" fill="url(#m)"/><path d="m306.39 198.1 14.6 55.92h-32.59l-4.27 4.81h59.3l-18.16-65.72-16.3-.53z" fill="#4e99ff"/><path d="m306.39 198.1 14.6 55.92h-32.59l-4.27 4.81h59.3l-18.16-65.72-16.3-.53z" fill="url(#n)"/><path d="m308.97 192.58 16.3 61.44h-36.87v4.81h59.31l-18.17-65.72z" fill="#4e99ff"/><path d="m312.5 435.32a2.51 2.51 0 0 1 -.87 1.75c-8.69 9.18-23.72 8.8-35.45 4.1-2.05-.84-4.17-1.86-5.46-3.65-1.44-2-1.63-4.66-1.75-7.17-.91-21.93-1-44-4.89-65.65-1.29-7.29-3-14.5-3.91-21.86-1.25-10.55-.68-21.25-1.1-31.88a3.14 3.14 0 0 0 -.69-2.2 2.87 2.87 0 0 0 -2.08-.57c-3.15-.07-6.26-.11-9.41-.15-.08 22.32-1.56 43.57-1.14 65.88.26 12.83-2.47 25.54-3.19 38.37a26.43 26.43 0 0 0 .27 6.71c1.48 7.06 7.85 11.84 11.68 17.95a9.14 9.14 0 0 1 1.67 5.17c-.19 2.92-2.84 5.19-5.69 5.92s-5.84.07-8.65-.69a20.31 20.31 0 0 1 -6-2.46 21.11 21.11 0 0 1 -3.94-3.69c-2.28-2.58-4.48-5.27-6.57-8a11.55 11.55 0 0 1 -2-3.45c-1.06-3.42 1-6.91 2.46-10.17a35 35 0 0 0 2-22.77 67 67 0 0 1 -2.58-17q-.18-28.69-.88-57.38a212 212 0 0 1 -43.33 1.17c-9.72-.68-20.12-2.39-27.18-9.11-7.62-7.21-9.6-18.55-9.82-29-.08-3.72 0-7.59 1.86-10.78 14.07-.11 33.16 1.41 47.24 1.29a44.09 44.09 0 0 1 9.68.65 35.13 35.13 0 0 0 4.25.23c7.13.26 21.78.68 36.39 3.56a.34.34 0 0 0 .19 0c9.34 1.86 18.64 4.71 25.92 9.26.68.42 1.37.84 2 1.29a46 46 0 0 1 3.65 2.85l.11.11a25.3 25.3 0 0 1 8.46 16.28c.12 1.14.23 2.47.31 3.95s.11 3.19.11 5v2.05c.19 19-1.33 51 .42 75.9.79 11 3.22 23.49 12.56 29.48 4.51 2.92 10.13 3.91 14.3 7.33a2.21 2.21 0 0 1 1.05 1.38z" fill="#606161" transform="translate(-6.84 -2.01)"/><path d="m312.5 435.32a2.51 2.51 0 0 1 -.87 1.75c-8.69 9.18-23.72 8.8-35.45 4.1-2.05-.84-4.17-1.86-5.46-3.65-1.44-2-1.63-4.66-1.75-7.17-.91-21.93-1-44-4.89-65.65-1.29-7.29-3-14.5-3.91-21.86-1.25-10.55-.68-21.25-1.1-31.88a3.14 3.14 0 0 0 -.69-2.2 2.87 2.87 0 0 0 -2.08-.57c-3.15-.07-6.26-.11-9.41-.15-.08 22.32-1.56 43.57-1.14 65.88.26 12.83-2.47 25.54-3.19 38.37a26.43 26.43 0 0 0 .27 6.71c1.48 7.06 7.85 11.84 11.68 17.95a9.14 9.14 0 0 1 1.67 5.17c-.19 2.92-2.84 5.19-5.69 5.92s-5.84.07-8.65-.69a20.31 20.31 0 0 1 -6-2.46 21.11 21.11 0 0 1 -3.94-3.69c-2.28-2.58-4.48-5.27-6.57-8a11.55 11.55 0 0 1 -2-3.45c-1.06-3.42 1-6.91 2.46-10.17a35 35 0 0 0 2-22.77 67 67 0 0 1 -2.58-17q-.18-28.69-.88-57.38a212 212 0 0 1 -43.33 1.17c-9.72-.68-20.12-2.39-27.18-9.11-7.62-7.21-9.6-18.55-9.82-29-.08-3.72 0-7.59 1.86-10.78 14.07-.11 33.16 1.41 47.24 1.29a44.09 44.09 0 0 1 9.68.65 35.13 35.13 0 0 0 4.25.23c7.13.26 21.78.68 36.39 3.56a.34.34 0 0 0 .19 0c9.34 1.86 18.64 4.71 25.92 9.26.68.42 1.37.84 2 1.29a46 46 0 0 1 3.65 2.85l.11.11a25.3 25.3 0 0 1 8.46 16.28c.12 1.14.23 2.47.31 3.95s.11 3.19.11 5v2.05c.19 19-1.33 51 .42 75.9.79 11 3.22 23.49 12.56 29.48 4.51 2.92 10.13 3.91 14.3 7.33a2.21 2.21 0 0 1 1.05 1.38z" fill="url(#o)" transform="translate(-6.84 -2.01)"/><path d="m312.5 435.32a2.51 2.51 0 0 1 -.87 1.75c-8.69 9.18-23.72 8.8-35.45 4.1-2.05-.84-4.17-1.86-5.46-3.65-1.44-2-1.63-4.66-1.75-7.17-.91-21.93-1-44-4.89-65.65-1.29-7.29-3-14.5-3.91-21.86-1.25-10.55-.68-21.25-1.1-31.88a3.14 3.14 0 0 0 -.69-2.2 2.87 2.87 0 0 0 -2.08-.57c-3.15-.07-6.26-.11-9.41-.15 0 0 .26-6.6-2.13-9.52s-45.16-16.32-45.16-16.32-2.73-3.61 7.44-5.35c.72-.08 1.52-.19 2.35-.31 6.3-.75 20.27.69 34 3.87a.34.34 0 0 0 .19 0c9.68 2.28 19.2 5.43 25.92 9.26.68.42 1.37.84 2 1.29a24.09 24.09 0 0 1 3.65 2.85l.11.11a15.58 15.58 0 0 1 1.78 2.13 40.09 40.09 0 0 1 7 18.1 29.58 29.58 0 0 1 .11 5 10.17 10.17 0 0 1 -.15 1.48l.19.57c.19 19-1.33 51 .42 75.9.79 11 3.22 23.49 12.56 29.48 4.51 2.92 10.13 3.91 14.3 7.33a2.21 2.21 0 0 1 1.03 1.41z" fill="url(#p)" transform="translate(-6.84 -2.01)"/><path d="m165.71 259h255.6v13.53h-255.6z" fill="#4e99ff"/><path d="m208.01 270.23h18.96v188.94h-18.96z" fill="#4e99ff"/><path d="m165.71 259h255.66v4.55h-255.66z" fill="url(#q)"/><path d="m229.64 271.83h75.15v13.89h-75.15z" fill="#4e99ff"/><path d="m229.64 271.83h75.15v6.95h-75.15z" fill="url(#r)"/><path d="m223.32 174.17a11.74 11.74 0 0 1 -5.49 3.34c-3.34.65-6.58-1.38-9.19-3.57a53.33 53.33 0 0 1 -14.79-19.87 64 64 0 0 0 -3.06-6.81c-1.44-2.48-3.43-4.68-4.36-7.39s-.47-9.2 2.1-10.46a18 18 0 0 1 2.5-.76c3.1-1 5.39-.74 7.45-3.27 4.59-5.64 10.11-11.45 17.34-12.28 4.8-.55 9.54 1.24 13.93 3.25s10.49 5.24 12.61 9.83.34 11.16-.68 15.71a63.23 63.23 0 0 1 -18.36 32.28z" fill="url(#s)" transform="translate(-6.84 -2.01)"/><path d="m221.13 122.48c.11 3 3.41 4.78 6.35 5.34s6.22.59 8.49 2.54c1.76 1.51 2.89 4.11 5.19 4.38a4.48 4.48 0 0 0 3-.91c3.44-2.31 4.85-6.88 4.27-11s-2.83-7.78-5.45-11c-9.19-11.18-23.98-17.83-38.38-16.33s-27.8 11.77-32.14 25.6c-2.3 7.35-2.13 15.23-3.68 22.78a50.7 50.7 0 0 1 -11.37 23c-6 6.85-14.17 12.76-15.81 21.7-1 5.72.94 11.67 4.2 16.5s7.68 8.72 12.06 12.56c4.36-7.32 13.87-9.33 20.89-14.14a29.21 29.21 0 0 0 12.25-26.87c-.73-6.39-.57-6.63 0-13 .37-3.8 3.21-5.75 2.78-9.54-.28-2.43-5.65-12.39-6.31-14.75-1.1-3.92.05-9.55 5.16-9.53 4.28 0 6.88 5.48 8.09 8.82 4.16-1.49 20.61-10.86 20.41-16.15z" fill="#606161" transform="translate(-6.84 -2.01)"/><path d="m221.13 122.48c.11 3 3.41 4.78 6.35 5.34s6.22.59 8.49 2.54c1.76 1.51 2.89 4.11 5.19 4.38a4.48 4.48 0 0 0 3-.91c3.44-2.31 4.85-6.88 4.27-11s-2.83-7.78-5.45-11c-9.19-11.18-23.98-17.83-38.38-16.33s-27.8 11.77-32.14 25.6c-2.3 7.35-2.13 15.23-3.68 22.78a50.7 50.7 0 0 1 -11.37 23c-6 6.85-14.17 12.76-15.81 21.7-1 5.72.94 11.67 4.2 16.5s7.68 8.72 12.06 12.56c4.36-7.32 13.87-9.33 20.89-14.14a29.21 29.21 0 0 0 12.25-26.87c-.73-6.39-.57-6.63 0-13 .37-3.8 3.21-5.75 2.78-9.54-.28-2.43-5.65-12.39-6.31-14.75-1.1-3.92.05-9.55 5.16-9.53 4.28 0 6.88 5.48 8.09 8.82 4.16-1.49 20.61-10.86 20.41-16.15z" fill="url(#t)" transform="translate(-6.84 -2.01)"/><path d="m300.88 72.81h176.18v51.46h-176.18z" fill="#fff" transform="matrix(.9999961 -.00279252 .00279252 .9999961 -7.12 -.91)"/><path d="m313.21 86.99h21.52v34.63h-21.52z" fill="#4e99ff" transform="matrix(.99999194 -.00401425 .00401425 .99999194 -7.26 -.71)"/><path d="m313.21 86.99h21.52v34.63h-21.52z" fill="url(#u)" transform="matrix(.99999194 -.00401425 .00401425 .99999194 -7.26 -.71)"/><path d="m334.59 86.97h21.52v34.63h-21.52z" fill="#4e99ff" transform="matrix(.99999194 -.00401425 .00401425 .99999194 -7.26 -.62)"/><path d="m334.59 86.97h21.52v34.63h-21.52z" fill="url(#v)" transform="matrix(.99999194 -.00401425 .00401425 .99999194 -7.26 -.62)"/><path d="m355.98 86.95h21.52v34.63h-21.52z" fill="#4e99ff" transform="matrix(.99999194 -.00401425 .00401425 .99999194 -7.26 -.54)"/><path d="m355.98 86.95h21.52v34.63h-21.52z" fill="url(#w)" transform="matrix(.99999194 -.00401425 .00401425 .99999194 -7.26 -.54)"/><path d="m377.36 86.93h21.52v34.63h-21.52z" fill="#4e99ff" transform="matrix(.99999194 -.00401425 .00401425 .99999194 -7.26 -.45)"/><path d="m377.36 86.93h21.52v34.63h-21.52z" fill="url(#x)" transform="matrix(.99999194 -.00401425 .00401425 .99999194 -7.26 -.45)"/><path d="m398.74 86.91h21.52v34.63h-21.52z" fill="#4e99ff" transform="matrix(.99999194 -.00401425 .00401425 .99999194 -7.26 -.36)"/><path d="m420.38 86.77h21.52v34.63h-21.52z" fill="#4e99ff" transform="matrix(.99999194 -.00401425 .00401425 .99999194 -7.26 -.28)"/><path d="m441.51 86.87h21.52v34.63h-21.52z" fill="#4e99ff" transform="matrix(.99999194 -.00401425 .00401425 .99999194 -7.26 -.19)"/><path d="m432.11 119.65-18.23-.15-.14-34.64 18.23.16z" fill="url(#y)"/><path d="m438.89 86.99h21.52v34.63h-21.52z" fill="url(#z)" transform="matrix(.99999194 -.00401425 .00401425 .99999194 -7.26 -.2)"/><path d="m201.6 270.23h18.96v188.94h-18.96z" fill="#4e99ff"/><path d="m201.6 270.23h18.96v188.94h-18.96z" fill="url(#A)"/><path d="m218.6 248.5-6.41-21.02 2.31-1.24 7.12 22.44z" fill="#4e99ff"/><path d="m218.6 248.5-6.41-21.02 2.31-1.24 7.12 22.44z" fill="url(#B)"/><circle cx="108.9" cy="85.73" fill="#4e99ff" opacity=".51" r="50.32"/><circle cx="74.91" cy="148.25" fill="#4e99ff" opacity=".51" r="50.32"/><path d="m93.54 146.9.93 17.9 4.55-6.68 5.51 8.55 3.48-2.41-6.32-7.88 7.21-1.2z" fill="#fff"/><path d="m36.06 224.81h89.75v8.55h-89.75z" fill="#4e99ff" opacity=".51"/><path d="m36.06 233h89.75v8.55h-89.75z" fill="#4e99ff" opacity=".51"/><path d="m36.06 233h89.75v8.55h-89.75z" fill="#4e99ff" opacity=".51"/></svg>