<svg enable-background="new 0 0 100 100" height="60" viewBox="0 0 100 100" width="60" xmlns="http://www.w3.org/2000/svg"><path d="m97.1 20.2-.3-1.9-1.9-.3c-1-.2-24.9-4.1-37.7 8.7-2.1 2.1-3.8 4.6-5.1 7.2-.8-7.3-3.1-15.7-9.1-21.6-12.9-12.9-36.8-9-37.8-8.8l-1.9.3-.4 2c-.2 1-4.1 24.9 8.7 37.7 7.9 7.9 19.9 9.4 28.3 9.4 3.2 0 5.8-.2 7.5-.4v41.9c0 1.5 1.2 2.8 2.8 2.8 1.5 0 2.7-1.2 2.7-2.8v-27.5c1.7.2 4.2.4 7.1.4 8.4 0 20.4-1.6 28.3-9.4 12.8-12.8 8.9-36.7 8.8-37.7zm-50.6 26.9c-5.7.6-22 1.4-30.9-7.5s-8.1-25.2-7.5-30.9c5.7-.6 22-1.4 30.9 7.5 8.9 8.8 8.1 25.2 7.5 30.9zm37.9 6.9c-8.9 8.9-25.2 8.1-30.9 7.5-.6-5.7-1.4-22 7.5-30.9s25.2-8.1 30.9-7.5c.6 5.7 1.4 22-7.5 30.9z" fill="#fff"/></svg>